<svg width="25" height="25" viewBox="0 0 25 25" fill="none" xmlns="http://www.w3.org/2000/svg">
<path fill-rule="evenodd" clip-rule="evenodd" d="M3.83765 6.6753C5.40484 6.6753 6.6753 5.40484 6.6753 3.83765C6.6753 2.27046 5.40484 1 3.83765 1C2.27046 1 1 2.27046 1 3.83765C1 5.40484 2.27046 6.6753 3.83765 6.6753ZM15.6362 9.0649C14.9194 9.42334 14.1427 10.409 13.844 10.8571V8.7662H9.21419V23.9999H13.9934V15.0389C13.9934 14.1428 14.5908 13.396 14.8895 13.0973C15.1882 12.7986 15.9349 12.4999 16.831 12.4999C17.5479 12.4999 18.1254 12.7986 18.3246 12.948C18.4241 12.9978 18.683 13.2168 18.922 13.6947C19.1609 14.1727 19.2206 14.9891 19.2206 15.3376V23.9999H23.9999V14.5908C23.9999 14.4415 23.9999 13.0973 23.4025 11.6038C22.8051 10.1103 22.0583 9.51295 21.6103 9.21425C21.1622 8.91555 20.1168 8.4675 18.7726 8.4675C17.4284 8.4675 16.5323 8.61685 15.6362 9.0649ZM1.29876 8.76628H6.07796V24H1.29876V8.76628Z" fill="#C4C4C4"/>
</svg>
