<svg width="25" height="25" viewBox="0 0 25 25" fill="none" xmlns="http://www.w3.org/2000/svg">
<g clip-path="url(#clip0_53_172)">
<path d="M22.1584 3.29601L2.58665 11.0542C2.58665 11.0542 1.65105 11.4338 1.3524 11.5831C1.05374 11.7325 0.999779 12.093 0.999756 12.4648C0.999734 12.8174 1.64627 13.1113 1.88137 13.17L6.99471 14.7569L20.0425 6.4698C20.1601 6.41103 20.4305 6.32874 20.5715 6.4698C20.7126 6.61086 20.5127 6.88122 20.3952 6.99877L9.99218 16.3438C12.7546 18.4597 18.3498 22.7267 18.632 22.8678C18.9846 23.0441 19.3373 23.0441 19.8662 22.8678C20.2894 22.7267 20.5127 22.1037 20.5715 21.8098L24.098 3.82497C24.1567 3.70742 24.1685 3.4018 23.7453 3.11968C23.3221 2.83757 22.5111 3.11968 22.1584 3.29601Z" fill="#BFBFBF"/>
</g>
<defs>
<clipPath id="clip0_53_172">
<rect width="25" height="25" fill="white" transform="translate(-0.000244141)"/>
</clipPath>
</defs>
</svg>
